<svg width="1203" height="1228" viewBox="0 0 1203 1228" fill="none" xmlns="http://www.w3.org/2000/svg">
<g clip-path="url(#clip0_191_6623)">
<path d="M269.365 1161.85H311.594V1077.51H392.784V1037.68H311.594V985.491H406.301V945.573H269.365V1161.85Z" fill="#03A9AA"/>
<path d="M611.792 995.47C599.777 995.47 589.529 998.208 580.96 1003.77C572.39 1009.34 565.499 1016.49 560.199 1025.23C555.34 1015.69 548.537 1008.28 539.614 1003.15C530.691 997.943 520.355 995.382 508.605 995.382C499.152 995.382 490.582 997.325 482.896 1001.12C475.21 1005.01 468.938 1010.4 463.99 1017.28V1000.15H422.821V1161.68H463.99V1070.01C463.99 1059.06 466.906 1050.31 472.648 1043.87C478.391 1037.42 486.253 1034.24 496.148 1034.24C506.043 1034.24 513.464 1037.42 519.206 1043.87C524.949 1050.31 527.776 1058.97 527.776 1070.01V1161.68H568.945V1070.01C568.945 1059.06 571.86 1050.31 577.603 1043.87C583.345 1037.42 591.208 1034.24 601.102 1034.24C610.997 1034.24 618.418 1037.42 624.161 1043.87C629.903 1050.31 632.73 1058.97 632.73 1070.01V1161.68H673.899V1063.83C673.899 1042.54 668.245 1025.76 657.025 1013.57C645.805 1001.39 630.698 995.294 611.792 995.294" fill="#03A9AA"/>
<path d="M814.103 1087.58C814.103 1099.33 810.923 1108.87 804.65 1116.2C798.378 1123.53 789.985 1127.15 779.737 1127.15C769.489 1127.15 761.096 1123.53 754.735 1116.2C748.374 1108.87 745.282 1099.42 745.282 1087.58V1000.33H704.113V1090.76C704.113 1113.37 711.004 1131.56 724.874 1145.34C738.745 1159.12 757.032 1166 779.737 1166C802.442 1166 820.729 1159.12 834.599 1145.34C848.47 1131.56 855.361 1113.37 855.361 1090.76V1000.33H814.192V1087.58H814.103Z" fill="#03A9AA"/>
<path d="M991.678 1080.16C986.554 1076.72 980.9 1073.72 974.715 1071.24C968.531 1068.77 962.259 1066.74 956.074 1065.06C949.89 1063.38 944.236 1061.71 939.112 1060.03C933.988 1058.35 929.836 1056.14 926.655 1053.4C923.475 1050.75 921.885 1047.49 921.885 1043.78C921.885 1039.27 923.917 1035.65 927.981 1032.83C932.045 1030 937.522 1028.59 944.413 1028.59C960.845 1028.59 974.185 1034.59 984.257 1046.52L1007.49 1022.14C1001.31 1013.66 992.738 1007.13 981.606 1002.45C970.475 997.766 957.753 995.47 943.353 995.47C923.828 995.47 908.545 1000.15 897.59 1009.6C886.635 1019.05 881.158 1030.35 881.158 1043.69C881.158 1049.87 882.129 1055.44 884.161 1060.38C886.105 1065.41 888.844 1069.57 892.112 1072.92C895.47 1076.28 899.268 1079.28 903.686 1081.93C908.015 1084.58 912.608 1086.79 917.467 1088.55C922.326 1090.32 927.097 1091.91 931.868 1093.41C936.639 1094.91 941.232 1096.32 945.561 1097.74C949.89 1099.15 953.778 1100.74 957.046 1102.33C960.403 1104.01 963.054 1106.04 964.997 1108.42C966.941 1110.81 968.001 1113.63 968.001 1116.64C968.001 1121.85 965.881 1125.91 961.729 1128.91C957.576 1131.91 951.657 1133.42 943.971 1133.42C924.889 1133.42 909.075 1126.53 896.706 1112.84L873.825 1139.16C881.069 1147.63 890.522 1154.26 902.095 1159.2C913.669 1164.06 926.92 1166.53 941.762 1166.53C962.877 1166.53 979.309 1161.68 991.148 1151.96C1002.99 1142.25 1008.82 1130.24 1008.82 1115.84C1008.82 1107.63 1007.23 1100.47 1004.05 1094.38C1000.87 1088.29 996.713 1083.52 991.589 1080.07" fill="#03A9AA"/>
<path d="M1149.82 1114.52C1141.69 1123.44 1131.44 1127.85 1118.98 1127.85C1106.53 1127.85 1096.46 1123.35 1088.33 1114.43C1080.2 1105.51 1076.14 1094.47 1076.14 1081.4C1076.14 1068.33 1080.2 1057.11 1088.42 1048.02C1096.63 1039.01 1106.79 1034.42 1118.98 1034.42C1131.18 1034.42 1141.69 1038.92 1149.82 1048.02C1157.94 1057.02 1162.01 1068.15 1162.01 1081.4C1162.01 1094.65 1157.94 1105.6 1149.82 1114.52ZM1180.56 1019.76C1165.54 1003.68 1147.17 995.647 1125.43 995.647C1105.47 995.647 1089.03 1003.15 1076.14 1018.08V1000.42H1034.97V1228H1076.14V1145.78C1088.33 1159.73 1104.76 1166.71 1125.43 1166.71C1147.7 1166.71 1166.25 1158.5 1181 1142.16C1195.76 1125.82 1203.09 1105.33 1203.09 1080.87C1203.09 1056.41 1195.58 1035.74 1180.56 1019.67" fill="#03A9AA"/>
<path d="M711.358 536.858C711.358 762.234 894.763 945.662 1120.31 945.662H1202.73V744.66H1120.31C1005.72 744.66 912.52 651.489 912.52 536.947C912.52 428.586 996.007 339.389 1102.02 330.028C1158.65 324.287 1202.73 276.51 1202.73 218.4V128.143H1120.31C894.851 128.143 711.358 311.482 711.358 536.947" fill="#03A9AA"/>
<path d="M473.62 292.936H269.365V497.117H473.62V292.936Z" fill="#03A9AA"/>
<path d="M269.365 292.936H0V497.117H269.365V292.936Z" fill="#1988C8"/>
<path d="M473.62 0H381.564C319.634 0 269.365 50.2504 269.365 112.158V292.936H473.62V0Z" fill="#1988C8"/>
<path d="M269.365 790.141H361.156C423.086 790.141 473.355 739.891 473.355 677.983L473.62 678.69V497.205H269.365V790.141Z" fill="#1988C8"/>
<path d="M711.358 292.936H473.62V497.117H713.213C726.2 362.88 804.385 247.543 915.524 182.986V0H711.269V292.936H711.358Z" fill="#1988C8"/>
</g>
<defs>
<clipPath id="clip0_191_6623">
<rect width="1203" height="1228" fill="white"/>
</clipPath>
</defs>
</svg>
