<svg width="2058" height="881" viewBox="0 0 2058 881" fill="none" xmlns="http://www.w3.org/2000/svg">
<g clip-path="url(#clip0_191_6612)">
<mask id="mask0_191_6612" style="mask-type:luminance" maskUnits="userSpaceOnUse" x="0" y="590" width="634" height="290">
<path d="M633.74 590.701H0V879.951H633.74V590.701Z" fill="white"/>
</mask>
<g mask="url(#mask0_191_6612)">
<path fill-rule="evenodd" clip-rule="evenodd" d="M567.867 281.578C585.583 281.578 602.572 288.615 615.099 301.141C627.626 313.667 634.663 330.655 634.663 348.37V515.352C634.663 594.3 576.251 656.517 501.07 675.988V715.73C501.07 721.592 499.526 727.351 496.596 732.427C493.664 737.503 489.448 741.718 484.372 744.65V753.834C483.827 787.652 470.01 819.897 445.901 843.62C421.795 867.341 389.326 880.636 355.504 880.636C321.682 880.636 289.213 867.341 265.104 843.62C240.998 819.897 227.182 787.652 226.636 753.834V720.437C226.654 708.368 222.684 696.63 215.347 687.048C208.009 677.465 197.712 670.571 186.056 667.438C174.399 664.305 162.034 665.109 150.88 669.721C139.726 674.334 130.408 682.501 124.371 692.952C140.5 701.972 153.182 716.087 160.428 733.087C167.674 750.086 169.075 769.011 164.412 786.892C159.748 804.773 149.284 820.602 134.658 831.898C120.032 843.194 102.072 849.319 83.5912 849.315C63.9716 849.337 44.9708 842.45 29.9223 829.862C14.8738 817.274 4.73903 799.789 1.296 780.475C-2.14703 761.162 1.32174 741.252 11.0935 724.239C20.8653 707.229 36.3162 694.199 54.7351 687.443C62.7602 659.231 80.7076 634.868 105.273 618.837C129.839 602.809 159.368 596.194 188.424 600.211C217.481 604.227 244.107 618.606 263.404 640.697C282.699 662.788 293.362 691.106 293.433 720.437V753.834C293.808 770.047 300.514 785.468 312.114 796.799C323.713 808.133 339.287 814.479 355.504 814.479C371.721 814.479 387.295 808.133 398.894 796.799C410.494 785.468 417.198 770.047 417.575 753.834V744.65C412.497 741.718 408.281 737.503 405.351 732.427C402.419 727.351 400.875 721.592 400.875 715.73V675.988C325.696 656.517 267.282 594.3 267.282 515.352V348.37C267.282 330.655 274.319 313.667 286.846 301.141C299.373 288.615 316.362 281.578 334.078 281.578H367.477C376.336 281.578 384.831 285.095 391.093 291.359C397.357 297.621 400.875 306.115 400.875 314.974C400.875 323.83 397.357 332.325 391.093 338.589C384.831 344.851 376.336 348.37 367.477 348.37H334.078V515.352C334.078 567.114 382.607 615.541 450.974 615.541C519.34 615.541 567.867 567.114 567.867 515.352V348.37H534.468C525.611 348.37 517.117 344.851 510.852 338.589C504.59 332.325 501.07 323.83 501.07 314.974C501.07 306.115 504.59 297.621 510.852 291.359C517.117 285.095 525.611 281.578 534.468 281.578H567.867ZM83.5912 782.522C79.1623 782.522 74.915 780.763 71.7831 777.632C68.6515 774.498 66.8921 770.252 66.8921 765.823C66.8921 761.394 68.6515 757.148 71.7831 754.017C74.915 750.884 79.1623 749.126 83.5912 749.126C88.0201 749.126 92.2677 750.884 95.3993 754.017C98.5312 757.148 100.29 761.394 100.29 765.823C100.29 770.252 98.5312 774.498 95.3993 777.632C92.2677 780.763 88.0201 782.522 83.5912 782.522Z" fill="#2D2D2D"/>
</g>
<path d="M700.663 539.684C658.553 588.72 602.846 624.165 540.592 641.542C478.335 658.92 412.322 657.445 350.904 637.307C289.485 617.17 235.418 579.272 195.538 528.408C155.659 477.544 131.759 415.998 126.86 351.55C121.963 287.104 136.286 222.652 168.02 166.346C199.754 110.04 247.475 64.4075 305.143 35.2199C362.813 6.03236 427.845 -5.39964 492.012 2.36954C556.179 10.1387 616.603 36.7602 665.639 78.8676L601.66 153.365C567.359 123.91 525.093 105.288 480.207 99.8537C435.322 94.4189 389.832 102.416 349.491 122.833C309.15 143.25 275.77 175.17 253.571 214.557C231.373 253.944 221.354 299.028 224.781 344.109C228.206 389.19 244.924 432.242 272.822 467.824C300.718 503.404 338.539 529.912 381.501 543.999C424.465 558.086 470.639 559.117 514.189 546.962C557.738 534.807 596.705 510.011 626.16 475.711L700.663 539.684Z" fill="#2D2D2D"/>
<path d="M729.629 75.0726L472.514 337.646L389.554 252.926L318.029 326.023L476.63 487.972L547.543 415.638L548.154 416.249L806.032 153.065L729.629 75.0726Z" fill="#1E77D0"/>
<path d="M830.511 428.956C830.511 449.294 832.476 463.854 836.405 472.635C840.565 481.187 847.269 485.462 856.512 485.462C865.758 485.462 878.817 483.267 895.687 478.875L904.701 527.754C886.444 534.456 868.07 537.807 849.579 537.807C821.844 537.807 801.622 528.679 788.91 510.421C776.429 491.934 770.189 464.547 770.189 428.263C770.189 391.749 776.776 363.899 789.95 344.718C803.123 325.305 824.618 315.599 854.432 315.599C871.998 315.599 888.754 319.297 904.701 326.692L895.34 380.424C877.313 374.416 864.718 371.411 857.552 371.411C847.384 371.411 840.335 375.918 836.405 384.931C832.476 393.712 830.511 408.389 830.511 428.956ZM932.144 341.598C945.549 324.265 967.39 315.599 997.666 315.599C1027.94 315.599 1049.55 324.151 1062.5 341.252C1075.67 358.353 1082.26 386.203 1082.26 424.797C1082.26 463.161 1075.55 491.587 1062.15 510.075C1048.74 528.562 1027.02 537.807 996.973 537.807C966.927 537.807 945.318 528.679 932.144 510.421C918.97 492.163 912.383 463.854 912.383 425.49C912.383 386.896 918.97 358.931 932.144 341.598ZM1022.63 424.797C1022.63 403.535 1020.89 389.205 1017.43 381.811C1014.19 374.184 1007.37 370.371 996.973 370.371C986.804 370.371 980.217 374.184 977.212 381.811C974.207 389.205 972.705 403.418 972.705 424.45V432.77C972.705 455.188 974.324 469.977 977.559 477.142C981.026 484.075 987.844 487.542 998.013 487.542C1008.41 487.542 1015.12 484.19 1018.12 477.489C1021.13 470.787 1022.63 456.921 1022.63 435.89V424.797ZM1262.91 534.341H1206.05L1161.33 434.156H1158.55V534.341H1105.86V319.065H1164.45L1207.09 422.37H1209.86V319.065H1262.91V534.341ZM1283.71 383.891C1283.71 363.323 1289.72 346.798 1301.74 334.318C1313.76 321.839 1330.17 315.599 1350.97 315.599C1372 315.599 1393.49 317.679 1415.45 321.839L1408.52 377.304C1385.64 371.989 1369.92 369.331 1361.37 369.331C1350.51 369.331 1345.08 373.723 1345.08 382.504C1345.08 385.971 1347.62 389.322 1352.7 392.557C1358.02 395.792 1364.37 399.259 1371.77 402.957C1379.16 406.424 1386.56 410.698 1393.96 415.783C1401.35 420.637 1407.59 427.685 1412.68 436.93C1417.99 446.175 1420.65 456.804 1420.65 468.822C1420.65 490.777 1414.76 507.763 1402.97 519.781C1391.18 531.799 1374.43 537.807 1352.7 537.807C1331.21 537.807 1310.18 534.456 1289.61 527.754L1293.42 476.102C1318.15 483.267 1335.37 486.848 1345.08 486.848C1354.78 486.848 1359.64 482.574 1359.64 474.022C1359.64 469.63 1356.98 465.587 1351.66 461.889C1346.58 458.191 1340.34 454.494 1332.94 450.796C1325.54 447.097 1318.03 442.823 1310.41 437.97C1303.01 433.116 1296.65 426.068 1291.34 416.823C1286.25 407.578 1283.71 396.602 1283.71 383.891ZM1502.04 463.622C1502.04 470.787 1503.54 476.102 1506.54 479.569C1509.55 483.035 1514.4 484.769 1521.1 484.769C1528.04 484.769 1532.77 483.15 1535.32 479.915C1538.09 476.449 1539.48 470.902 1539.48 463.276V319.065H1599.11V466.742C1599.11 491.47 1592.29 509.496 1578.65 520.821C1565.25 532.146 1545.37 537.807 1519.02 537.807C1492.91 537.807 1473.38 532.261 1460.44 521.168C1447.72 509.843 1441.37 491.934 1441.37 467.436V319.065H1502.04V463.622ZM1739.16 534.341H1629.6V319.065H1688.89V486.155H1742.62L1739.16 534.341ZM1880.36 371.411H1840.15V534.341H1780.86V371.411H1738.22L1741.69 319.065H1883.83L1880.36 371.411ZM2052.02 534.341H1994.12L1987.54 500.368H1946.63L1940.04 534.341H1884.92L1924.44 319.065H2012.5L2052.02 534.341ZM1980.95 459.809L1968.82 382.851H1966.39L1954.26 459.809H1980.95Z" fill="#2D2D2D"/>
<path d="M830.511 735.871C830.511 756.209 832.476 770.769 836.405 779.55C840.565 788.102 847.269 792.377 856.512 792.377C865.758 792.377 878.817 790.182 895.687 785.79L904.701 834.669C886.444 841.37 868.07 844.722 849.579 844.722C821.844 844.722 801.622 835.594 788.91 817.336C776.429 798.848 770.189 771.462 770.189 735.178C770.189 698.664 776.776 670.814 789.95 651.633C803.123 632.22 824.618 622.514 854.432 622.514C871.998 622.514 888.754 626.212 904.701 633.607L895.34 687.339C877.313 681.331 864.718 678.326 857.552 678.326C847.384 678.326 840.335 682.832 836.405 691.845C832.476 700.627 830.511 715.303 830.511 735.871ZM1035.8 841.256H919.317V625.98H1039.27L1035.8 679.019H978.599V711.258H1028.17V757.017H978.599V792.723H1039.27L1035.8 841.256ZM1206.82 694.272C1206.82 707.213 1204.85 717.96 1200.92 726.511C1196.99 735.063 1190.87 742.804 1182.55 749.738L1211.32 841.256H1147.19L1125.69 763.604H1117.72V841.256H1059.48V625.98H1139.91C1163.02 625.98 1179.89 631.412 1190.52 642.273C1201.39 653.134 1206.82 670.467 1206.82 694.272ZM1126.73 727.205C1132.74 727.205 1137.02 725.471 1139.56 722.005C1142.1 718.538 1143.37 712.298 1143.37 703.285C1143.37 694.04 1142.1 687.686 1139.56 684.219C1137.02 680.521 1132.86 678.672 1127.08 678.672H1117.72V727.205H1126.73ZM1355.94 678.326H1315.72V841.256H1256.44V678.326H1213.8L1217.27 625.98H1359.41L1355.94 678.326ZM1527.6 841.256H1469.7L1463.12 807.283H1422.21L1415.62 841.256H1360.5L1400.02 625.98H1488.08L1527.6 841.256ZM1456.53 766.724L1444.4 689.765H1441.97L1429.84 766.724H1456.53Z" fill="#2D2D2D"/>
</g>
<defs>
<clipPath id="clip0_191_6612">
<rect width="2058" height="881" fill="white"/>
</clipPath>
</defs>
</svg>
